<?xml version="1.0" encoding="UTF-8"?>
<svg width="512" height="512" viewBox="0 0 512 512" fill="none" xmlns="http://www.w3.org/2000/svg" role="img" aria-label="icon-school-consent-permissions">
  <defs>
    <linearGradient id="blueGrad" x1="80" y1="60" x2="430" y2="450" gradientUnits="userSpaceOnUse">
      <stop offset="0" stop-color="#1D7DFF"/>
      <stop offset="0.55" stop-color="#0D58D8"/>
      <stop offset="1" stop-color="#061F50"/>
    </linearGradient>
    <linearGradient id="softGrad" x1="100" y1="80" x2="420" y2="430" gradientUnits="userSpaceOnUse">
      <stop offset="0" stop-color="#F7FBFF"/>
      <stop offset="1" stop-color="#DCEBFF"/>
    </linearGradient>
    <filter id="softShadow" x="-10%" y="-10%" width="120%" height="120%">
      <feDropShadow dx="0" dy="8" stdDeviation="12" flood-color="#0B2458" flood-opacity="0.18"/>
    </filter>
  </defs>
  <g filter="url(#softShadow)">
    <rect x="128" y="70" width="256" height="340" rx="24" fill="#FFFFFF" stroke="#08265A" stroke-width="14"/><path d="M 320 70 L 384 134 L 320 134 Z" fill="#1267E8" stroke="#08265A" stroke-width="10" stroke-linejoin="round"/><line x1="170" y1="175" x2="305" y2="175" stroke="#08265A" stroke-width="14" stroke-linecap="round"/><line x1="170" y1="220" x2="315" y2="220" stroke="#08265A" stroke-width="14" stroke-linecap="round"/><line x1="170" y1="265" x2="285" y2="265" stroke="#08265A" stroke-width="14" stroke-linecap="round"/><path d="M 318 290 L 380 312 L 380 360 C 380 395 350 418 318 432 C 286 418 256 395 256 360 L 256 312 Z" fill="#1267E8" stroke="#08265A" stroke-width="10" stroke-linejoin="round"/><path d="M 274.0 337.0 L 298.75 361.75 L 345.5 312.25" stroke="#FFFFFF" stroke-width="12.100000000000001" stroke-linecap="round" stroke-linejoin="round" fill="none"/>
  </g>
</svg>
