<?xml version="1.0" encoding="UTF-8"?>
<svg width="512" height="512" viewBox="0 0 512 512" fill="none" xmlns="http://www.w3.org/2000/svg" role="img" aria-label="icon-reporting-school-report">
  <defs>
    <linearGradient id="blueGrad" x1="80" y1="60" x2="430" y2="450" gradientUnits="userSpaceOnUse">
      <stop offset="0" stop-color="#1D7DFF"/>
      <stop offset="0.55" stop-color="#0D58D8"/>
      <stop offset="1" stop-color="#061F50"/>
    </linearGradient>
    <linearGradient id="softGrad" x1="100" y1="80" x2="420" y2="430" gradientUnits="userSpaceOnUse">
      <stop offset="0" stop-color="#F7FBFF"/>
      <stop offset="1" stop-color="#DCEBFF"/>
    </linearGradient>
    <filter id="softShadow" x="-10%" y="-10%" width="120%" height="120%">
      <feDropShadow dx="0" dy="8" stdDeviation="12" flood-color="#0B2458" flood-opacity="0.18"/>
    </filter>
  </defs>
  <g filter="url(#softShadow)">
    <path d="M95 240 L256 115 L417 240" stroke="#0B2B67" stroke-width="22" stroke-linecap="round" stroke-linejoin="round" fill="none"/><rect x="130" y="230" width="252" height="180" rx="20" fill="#FFFFFF" stroke="#08265A" stroke-width="14"/><rect x="215" y="305" width="82" height="105" rx="20" fill="url(#blueGrad)" stroke="#08265A" stroke-width="12"/><rect x="165" y="265" width="42" height="42" rx="8" fill="#0D64E8"/><rect x="325" y="265" width="42" height="42" rx="8" fill="#0D64E8"/><line x1="256" y1="116" x2="256" y2="64" stroke="#08265A" stroke-width="10" stroke-linecap="round"/><path d="M260 66 L335 82 L260 102 Z" fill="#1267E8"/><circle cx="256" cy="205" r="32" fill="#FFFFFF" stroke="#08265A" stroke-width="10"/><line x1="256" y1="205" x2="256" y2="183" stroke="#08265A" stroke-width="9" stroke-linecap="round"/><line x1="256" y1="205" x2="278" y2="205" stroke="#08265A" stroke-width="9" stroke-linecap="round"/><rect x="315" y="115" width="95" height="130" rx="16" fill="#FFFFFF" stroke="#08265A" stroke-width="10"/><rect x="335" y="190" width="16" height="30" fill="#0D64E8"/><rect x="360" y="160" width="16" height="60" fill="#0D64E8"/><rect x="385" y="135" width="16" height="85" fill="#0D64E8"/>
  </g>
</svg>
