<?xml version="1.0" encoding="UTF-8"?>
<svg width="512" height="512" viewBox="0 0 512 512" fill="none" xmlns="http://www.w3.org/2000/svg" role="img" aria-label="icon-school-parents">
  <defs>
    <linearGradient id="blueGrad" x1="80" y1="60" x2="430" y2="450" gradientUnits="userSpaceOnUse">
      <stop offset="0" stop-color="#1D7DFF"/>
      <stop offset="0.55" stop-color="#0D58D8"/>
      <stop offset="1" stop-color="#061F50"/>
    </linearGradient>
    <linearGradient id="softGrad" x1="100" y1="80" x2="420" y2="430" gradientUnits="userSpaceOnUse">
      <stop offset="0" stop-color="#F7FBFF"/>
      <stop offset="1" stop-color="#DCEBFF"/>
    </linearGradient>
    <filter id="softShadow" x="-10%" y="-10%" width="120%" height="120%">
      <feDropShadow dx="0" dy="8" stdDeviation="12" flood-color="#0B2458" flood-opacity="0.18"/>
    </filter>
  </defs>
  <g filter="url(#softShadow)">
    <circle cx="200" cy="234.2" r="34.56" fill="url(#blueGrad)" stroke="#08265A" stroke-width="7.199999999999999"/><path d="M 138.8 342.2 C 142.4 291.8, 171.2 277.4, 200 277.4 C 228.8 277.4, 257.6 291.8, 261.2 342.2 Z" fill="url(#blueGrad)" stroke="#08265A" stroke-width="7.199999999999999"/><circle cx="305" cy="234.2" r="34.56" fill="#0B2B67" stroke="#08265A" stroke-width="7.199999999999999"/><path d="M 243.8 342.2 C 247.4 291.8, 276.2 277.4, 305 277.4 C 333.8 277.4, 362.6 291.8, 366.2 342.2 Z" fill="#0B2B67" stroke="#08265A" stroke-width="7.199999999999999"/><path d="M365 300 C390 270 430 290 430 326 C430 365 380 388 365 410 C350 388 300 365 300 326 C300 290 340 270 365 300 Z" fill="#1267E8" stroke="#08265A" stroke-width="10"/>
  </g>
</svg>
