<?xml version="1.0" encoding="UTF-8"?>
<svg width="512" height="512" viewBox="0 0 512 512" fill="none" xmlns="http://www.w3.org/2000/svg" role="img" aria-label="icon-finance-bank-transactions">
  <defs>
    <linearGradient id="blueGrad" x1="80" y1="60" x2="430" y2="450" gradientUnits="userSpaceOnUse">
      <stop offset="0" stop-color="#1D7DFF"/>
      <stop offset="0.55" stop-color="#0D58D8"/>
      <stop offset="1" stop-color="#061F50"/>
    </linearGradient>
    <linearGradient id="softGrad" x1="100" y1="80" x2="420" y2="430" gradientUnits="userSpaceOnUse">
      <stop offset="0" stop-color="#F7FBFF"/>
      <stop offset="1" stop-color="#DCEBFF"/>
    </linearGradient>
    <filter id="softShadow" x="-10%" y="-10%" width="120%" height="120%">
      <feDropShadow dx="0" dy="8" stdDeviation="12" flood-color="#0B2458" flood-opacity="0.18"/>
    </filter>
  </defs>
  <g filter="url(#softShadow)">
    <path d="M105 205 L256 105 L407 205 Z" fill="#FFFFFF" stroke="#08265A" stroke-width="16" stroke-linejoin="round"/><rect x="130" y="205" width="252" height="48" fill="#0D64E8" stroke="#08265A" stroke-width="12"/><rect x="155" y="253" width="34" height="115" rx="10" fill="#FFFFFF" stroke="#08265A" stroke-width="10"/><rect x="220" y="253" width="34" height="115" rx="10" fill="#FFFFFF" stroke="#08265A" stroke-width="10"/><rect x="285" y="253" width="34" height="115" rx="10" fill="#FFFFFF" stroke="#08265A" stroke-width="10"/><rect x="350" y="253" width="34" height="115" rx="10" fill="#FFFFFF" stroke="#08265A" stroke-width="10"/><rect x="110" y="370" width="292" height="44" rx="10" fill="#0D64E8" stroke="#08265A" stroke-width="12"/><path d="M398 250 C442 260 442 310 398 320" stroke="#0D64E8" stroke-width="18" stroke-linecap="round" fill="none"/><path d="M408 232 L438 260 L398 270" stroke="#0D64E8" stroke-width="14" stroke-linecap="round" stroke-linejoin="round" fill="none"/><path d="M114 320 C70 310 70 260 114 250" stroke="#0D64E8" stroke-width="18" stroke-linecap="round" fill="none"/><path d="M104 338 L74 310 L114 300" stroke="#0D64E8" stroke-width="14" stroke-linecap="round" stroke-linejoin="round" fill="none"/>
  </g>
</svg>
