<?xml version="1.0" encoding="UTF-8"?>
<svg width="512" height="512" viewBox="0 0 512 512" fill="none" xmlns="http://www.w3.org/2000/svg" role="img" aria-label="icon-parent-notifications">
  <defs>
    <linearGradient id="blueGrad" x1="80" y1="60" x2="430" y2="450" gradientUnits="userSpaceOnUse">
      <stop offset="0" stop-color="#1D7DFF"/>
      <stop offset="0.55" stop-color="#0D58D8"/>
      <stop offset="1" stop-color="#061F50"/>
    </linearGradient>
    <linearGradient id="softGrad" x1="100" y1="80" x2="420" y2="430" gradientUnits="userSpaceOnUse">
      <stop offset="0" stop-color="#F7FBFF"/>
      <stop offset="1" stop-color="#DCEBFF"/>
    </linearGradient>
    <filter id="softShadow" x="-10%" y="-10%" width="120%" height="120%">
      <feDropShadow dx="0" dy="8" stdDeviation="12" flood-color="#0B2458" flood-opacity="0.18"/>
    </filter>
  </defs>
  <g filter="url(#softShadow)">
    <path d="M256 395 C286 395 310 375 314 350 H198 C202 375 226 395 256 395 Z" fill="#0D64E8" stroke="#08265A" stroke-width="10"/><path d="M150 330 H362 C338 300 338 250 338 215 C338 160 303 120 256 120 C209 120 174 160 174 215 C174 250 174 300 150 330 Z" fill="url(#blueGrad)" stroke="#08265A" stroke-width="14"/><circle cx="350" cy="135" r="50" fill="#0D64E8" stroke="#FFFFFF" stroke-width="10"/><text x="335" y="155" font-family="Arial, sans-serif" font-size="54" font-weight="800" fill="#FFFFFF">1</text>
  </g>
</svg>
