<?xml version="1.0" encoding="UTF-8"?>
<svg width="512" height="512" viewBox="0 0 512 512" fill="none" xmlns="http://www.w3.org/2000/svg" role="img" aria-label="icon-reporting-re-enrolment-report">
  <defs>
    <linearGradient id="blueGrad" x1="80" y1="60" x2="430" y2="450" gradientUnits="userSpaceOnUse">
      <stop offset="0" stop-color="#1D7DFF"/>
      <stop offset="0.55" stop-color="#0D58D8"/>
      <stop offset="1" stop-color="#061F50"/>
    </linearGradient>
    <linearGradient id="softGrad" x1="100" y1="80" x2="420" y2="430" gradientUnits="userSpaceOnUse">
      <stop offset="0" stop-color="#F7FBFF"/>
      <stop offset="1" stop-color="#DCEBFF"/>
    </linearGradient>
    <filter id="softShadow" x="-10%" y="-10%" width="120%" height="120%">
      <feDropShadow dx="0" dy="8" stdDeviation="12" flood-color="#0B2458" flood-opacity="0.18"/>
    </filter>
  </defs>
  <g filter="url(#softShadow)">
    <path d="M256 92 C346 92 420 166 420 256 C420 346 346 420 256 420 C166 420 92 346 92 256" stroke="#0D64E8" stroke-width="26" stroke-linecap="round" fill="none"/><path d="M92 256 L112 198 L145 247" stroke="#0D64E8" stroke-width="22" stroke-linecap="round" stroke-linejoin="round" fill="none"/><circle cx="256" cy="195.75" r="45.599999999999994" fill="url(#blueGrad)" stroke="#08265A" stroke-width="9.5"/><path d="M 175.25 338.25 C 180.0 271.75, 218.0 252.75, 256 252.75 C 294.0 252.75, 332.0 271.75, 336.75 338.25 Z" fill="url(#blueGrad)" stroke="#08265A" stroke-width="9.5"/><circle cx="150" cy="239.8" r="32.64" fill="#0B2B67" stroke="#08265A" stroke-width="6.800000000000001"/><path d="M 92.19999999999999 341.8 C 95.6 294.2, 122.8 280.6, 150 280.6 C 177.2 280.6, 204.4 294.2, 207.8 341.8 Z" fill="#0B2B67" stroke="#08265A" stroke-width="6.800000000000001"/><circle cx="362" cy="239.8" r="32.64" fill="#0B2B67" stroke="#08265A" stroke-width="6.800000000000001"/><path d="M 304.2 341.8 C 307.6 294.2, 334.8 280.6, 362 280.6 C 389.2 280.6, 416.4 294.2, 419.8 341.8 Z" fill="#0B2B67" stroke="#08265A" stroke-width="6.800000000000001"/>
  </g>
</svg>
